<svg aria-hidden="true" width="24" height="24" version="1.1" xmlns="http://www.w3.org/2000/svg" xmlns:xlink="http://www.w3.org/1999/xlink">
<defs>

<symbol id="icon-activity" viewBox="0 0 24 24">
<title>activity</title>
<path d="M22 11h-4c-0.4 0-0.8 0.3-0.9 0.7l-2.1 6.1-5.1-15.1c-0.1-0.4-0.5-0.7-0.9-0.7s-0.8 0.3-0.9 0.7l-2.8 8.3h-3.3c-0.6 0-1 0.4-1 1s0.4 1 1 1h4c0.4 0 0.8-0.3 0.9-0.7l2.1-6.1 5.1 15.2c0.1 0.4 0.5 0.7 0.9 0.7s0.8-0.3 0.9-0.7l2.8-8.3h3.3c0.6 0 1-0.4 1-1s-0.4-1.1-1-1.1z"></path>
</symbol>

<symbol id="icon-airplay" viewBox="0 0 24 24">
<title>airplay</title>
<path d="M20 2h-16c-1.7 0-3 1.3-3 3v10c0 1.7 1.3 3 3 3h1c0.6 0 1-0.4 1-1s-0.4-1-1-1h-1c-0.6 0-1-0.4-1-1v-10c0-0.6 0.4-1 1-1h16c0.6 0 1 0.4 1 1v10c0 0.6-0.4 1-1 1h-1c-0.6 0-1 0.4-1 1s0.4 1 1 1h1c1.7 0 3-1.3 3-3v-10c0-1.7-1.3-3-3-3z"></path>
<path d="M12.8 14.4c-0.4-0.5-1.2-0.5-1.5 0l-5 6c-0.2 0.3-0.3 0.7-0.1 1.1 0.1 0.3 0.4 0.5 0.8 0.5h10c0.4 0 0.7-0.2 0.9-0.6s0.1-0.8-0.1-1.1l-5-5.9zM9.1 20l2.9-3.4 2.9 3.4h-5.8z"></path>
</symbol>

<symbol id="icon-gear" viewBox="0 0 24 24">
<title>gear</title>
<path d="M8 4.754a3.246 3.246 0 1 0 0 6.492 3.246 3.246 0 0 0 0-6.492zM5.754 8a2.246 2.246 0 1 1 4.492 0 2.246 2.246 0 0 1-4.492 0z"/>
<path d="M9.796 1.343c-.527-1.79-3.065-1.79-3.592 0l-.094.319a.873.873 0 0 1-1.255.52l-.292-.16c-1.64-.892-3.433.902-2.54 2.541l.159.292a.873.873 0 0 1-.52 1.255l-.319.094c-1.79.527-1.79 3.065 0 3.592l.319.094a.873.873 0 0 1 .52 1.255l-.16.292c-.892 1.64.901 3.434 2.541 2.54l.292-.159a.873.873 0 0 1 1.255.52l.094.319c.527 1.79 3.065 1.79 3.592 0l.094-.319a.873.873 0 0 1 1.255-.52l.292.16c1.64.893 3.434-.902 2.54-2.541l-.159-.292a.873.873 0 0 1 .52-1.255l.319-.094c1.79-.527 1.79-3.065 0-3.592l-.319-.094a.873.873 0 0 1-.52-1.255l.16-.292c.893-1.64-.902-3.433-2.541-2.54l-.292.159a.873.873 0 0 1-1.255-.52l-.094-.319zm-2.633.283c.246-.835 1.428-.835 1.674 0l.094.319a1.873 1.873 0 0 0 2.693 1.115l.291-.16c.764-.415 1.6.42 1.184 1.185l-.159.292a1.873 1.873 0 0 0 1.116 2.692l.318.094c.835.246.835 1.428 0 1.674l-.319.094a1.873 1.873 0 0 0-1.115 2.693l.16.291c.415.764-.42 1.6-1.185 1.184l-.291-.159a1.873 1.873 0 0 0-2.693 1.116l-.094.318c-.246.835-1.428.835-1.674 0l-.094-.319a1.873 1.873 0 0 0-2.692-1.115l-.292.16c-.764.415-1.6-.42-1.184-1.185l.159-.291A1.873 1.873 0 0 0 1.945 8.93l-.319-.094c-.835-.246-.835-1.428 0-1.674l.319-.094A1.873 1.873 0 0 0 3.06 4.377l-.16-.292c-.415-.764.42-1.6 1.185-1.184l.292.159a1.873 1.873 0 0 0 2.692-1.115l.094-.319z"/>
</symbol>

<symbol id="icon-case" viewBox="0 0 24 24">
<title>suit case</title>
<path d="M6.5 1A1.5 1.5 0 0 0 5 2.5V3H1.5A1.5 1.5 0 0 0 0 4.5v8A1.5 1.5 0 0 0 1.5 14h13a1.5 1.5 0 0 0 1.5-1.5v-8A1.5 1.5 0 0 0 14.5 3H11v-.5A1.5 1.5 0 0 0 9.5 1h-3zm0 1h3a.5.5 0 0 1 .5.5V3H6v-.5a.5.5 0 0 1 .5-.5zm1.886 6.914L15 7.151V12.5a.5.5 0 0 1-.5.5h-13a.5.5 0 0 1-.5-.5V7.15l6.614 1.764a1.5 1.5 0 0 0 .772 0zM1.5 4h13a.5.5 0 0 1 .5.5v1.616L8.129 7.948a.5.5 0 0 1-.258 0L1 6.116V4.5a.5.5 0 0 1 .5-.5z"/>
</symbol>


<symbol id="icon-empty-star" viewBox="0 0 24 24">
<title>empty star</title>
<path d="M2.866 14.85c-.078.444.36.791.746.593l4.39-2.256 4.389 2.256c.386.198.824-.149.746-.592l-.83-4.73 3.523-3.356c.329-.314.158-.888-.283-.95l-4.898-.696L8.465.792a.513.513 0 0 0-.927 0L5.354 5.12l-4.898.696c-.441.062-.612.636-.283.95l3.523 3.356-.83 4.73zm4.905-2.767l-3.686 1.894.694-3.957a.565.565 0 0 0-.163-.505L1.71 6.745l4.052-.576a.525.525 0 0 0 .393-.288l1.847-3.658 1.846 3.658a.525.525 0 0 0 .393.288l4.052.575-2.906 2.77a.564.564 0 0 0-.163.506l.694 3.957-3.686-1.894a.503.503 0 0 0-.461 0z"/>
</symbol>


<symbol id="icon-empty-credit-card" viewBox="0 0 24 24">
<title>credit card</title>
<path d="M11 5.5a.5.5 0 0 1 .5-.5h2a.5.5 0 0 1 .5.5v1a.5.5 0 0 1-.5.5h-2a.5.5 0 0 1-.5-.5v-1z"/>
<path d="M2 2a2 2 0 0 0-2 2v8a2 2 0 0 0 2 2h12a2 2 0 0 0 2-2V4a2 2 0 0 0-2-2H2zm13 2v5H1V4a1 1 0 0 1 1-1h12a1 1 0 0 1 1 1zm-1 9H2a1 1 0 0 1-1-1v-1h14v1a1 1 0 0 1-1 1z"/>
</symbol>


</defs>
</svg>


<svg class="bi bi-chevron-right" width="32" height="32" viewBox="0 0 20 20" fill="currentColor" xmlns="http://www.w3.org/2000/svg">
<path fill-rule="evenodd" d="M6.646 3.646a.5.5 0 01.708 0l6 6a.5.5 0 010 .708l-6 6a.5.5 0 01-.708-.708L12.293 10 6.646 4.354a.5.5 0 010-.708z"/>
</svg>